<svg aria-hidden="true" style="position: absolute; width: 0; height: 0; overflow: hidden;" version="1.1" xmlns="http://www.w3.org/2000/svg" xmlns:xlink="http://www.w3.org/1999/xlink">
    <defs>
		<symbol id="icon-youtube" viewBox="0 0 28 28">
				<g opacity="0.8">

				<path clip-rule="evenodd" d="M21.2099 5.24986C20.0199 5.17986 17.5699 5.10986 13.8599 5.10986H13.3699C9.79985 5.10986 7.41989 5.17986 6.22989 5.31986C4.61989 5.45986 3.49985 5.87986 2.86985 6.43986C2.30985 6.92986 1.88987 7.83986 1.74987 9.02986C1.67987 9.79986 1.60986 11.4099 1.60986 13.8599V14.2099C1.60986 16.5199 1.67985 18.1299 1.81985 18.8999C2.02985 20.0199 2.37989 20.8599 3.07989 21.3499C3.77989 21.9099 4.96987 22.2599 6.64987 22.3999C7.83987 22.4699 10.2899 22.5399 13.9999 22.5399H14.4899C18.0599 22.5399 20.4399 22.4699 21.6299 22.3299C23.2399 22.1899 24.3599 21.7699 24.9899 21.2099C25.5499 20.7199 25.9699 19.8099 26.1099 18.6199C26.1799 17.8499 26.2499 16.2399 26.2499 13.7899V13.4399C26.2499 11.1299 26.1799 9.51986 26.0399 8.74986C25.8299 7.62986 25.4799 6.78986 24.7799 6.29986C24.0799 5.73986 22.8899 5.38986 21.2099 5.24986ZM18.4799 13.8599L10.7799 18.4799V9.23986L18.4799 13.8599Z"/>

				</g>
			</symbol>

			<symbol id="icon-facebook" viewBox="0 0 28 28">
				<g opacity="0.8">

				<path d="M17.0804 4.06011C17.2904 4.06011 17.5004 4.06011 17.9204 4.06011V7.21011C17.7104 7.21011 17.2904 7.21011 16.8704 7.21011C16.4504 7.21011 16.0304 7.21011 15.8204 7.42011C15.6104 7.63011 15.6104 7.84011 15.6104 8.33011C15.6104 8.75011 15.6104 9.03011 15.6104 9.45011H17.9204V12.1101H15.6104V23.6601H12.0404V12.0401H10.1504V9.38011H12.0404V8.47011C12.0404 6.93011 12.2504 5.81011 12.6704 5.32011C13.3004 4.41011 14.5604 3.99011 16.4504 3.99011C16.6604 4.06011 16.8704 4.06011 17.0804 4.06011Z"/>

				</g>
			</symbol>
			
			<symbol id="icon-instagram" viewBox="0 0 28 28">
				<g opacity="0.8">

				<path d="M25.1277 9.41145C25.114 8.47139 24.9398 7.53878 24.6065 6.65957C24.0231 5.15821 22.8352 3.97103 21.3313 3.38985C20.4618 3.06325 19.5426 2.88816 18.6122 2.86829C17.4155 2.81489 17.0361 2.79999 13.9986 2.79999C10.961 2.79999 10.5716 2.79999 9.38372 2.86829C8.45454 2.88816 7.5353 3.06325 6.66582 3.38985C5.16196 3.97103 3.97279 5.15821 3.39065 6.65957C3.06351 7.52761 2.88688 8.44532 2.86946 9.37296C2.81598 10.5688 2.7998 10.9476 2.7998 13.9801C2.7998 17.0127 2.7998 17.4001 2.86946 18.5873C2.88812 19.5162 3.06351 20.4326 3.39065 21.3032C3.97404 22.8033 5.16195 23.9905 6.66706 24.5716C7.53281 24.9094 8.45205 25.1006 9.38497 25.1304C10.5828 25.1838 10.9622 25.2 13.9998 25.2C17.0374 25.2 17.4267 25.2 18.6146 25.1304C19.5438 25.1118 20.4631 24.9367 21.3338 24.6101C22.8377 24.0277 24.0256 22.8405 24.609 21.3404C24.9361 20.4711 25.1115 19.5547 25.1301 18.6245C25.1836 17.4299 25.1998 17.0511 25.1998 14.0174C25.1973 10.9848 25.1973 10.5999 25.1277 9.41145ZM13.9911 19.7149C10.8142 19.7149 8.24059 17.1455 8.24059 13.9739C8.24059 10.8023 10.8142 8.23296 13.9911 8.23296C17.1655 8.23296 19.7416 10.8023 19.7416 13.9739C19.7416 17.1455 17.1655 19.7149 13.9911 19.7149ZM19.9705 9.3593C19.2279 9.3593 18.6296 8.76074 18.6296 8.02061C18.6296 7.28049 19.2279 6.68193 19.9705 6.68193C20.7106 6.68193 21.3102 7.28049 21.3102 8.02061C21.3102 8.76074 20.7106 9.3593 19.9705 9.3593Z"/>
				<path d="M13.9928 17.479C15.9277 17.479 17.4963 15.9104 17.4963 13.9755C17.4963 12.0406 15.9277 10.472 13.9928 10.472C12.0578 10.472 10.4893 12.0406 10.4893 13.9755C10.4893 15.9104 12.0578 17.479 13.9928 17.479Z"/>

				</g>
			</symbol>

			<symbol id="icon-heart" viewBox="0 0 20 20">
				<path d="M17.3671 2.84166C16.9415 2.41583 16.4361 2.07803 15.8799 1.84757C15.3237 1.6171 14.7275 1.49847 14.1254 1.49847C13.5234 1.49847 12.9272 1.6171 12.371 1.84757C11.8147 2.07803 11.3094 2.41583 10.8838 2.84166L10.0004 3.725L9.11709 2.84166C8.25735 1.98192 7.09128 1.49892 5.87542 1.49892C4.65956 1.49892 3.4935 1.98192 2.63376 2.84166C1.77401 3.70141 1.29102 4.86747 1.29102 6.08333C1.29102 7.29919 1.77401 8.46525 2.63376 9.325L3.51709 10.2083L10.0004 16.6917L16.4838 10.2083L17.3671 9.325C17.7929 8.89937 18.1307 8.39401 18.3612 7.83779C18.5917 7.28158 18.7103 6.6854 18.7103 6.08333C18.7103 5.48126 18.5917 4.88508 18.3612 4.32887C18.1307 3.77265 17.7929 3.26729 17.3671 2.84166Z" stroke="#F6F6F6" stroke-width="1.5" stroke-linecap="round" stroke-linejoin="round" />
			</symbol>

			<symbol id="icon-run-man" viewBox="0 0 32 32">
				<circle cx="16" cy="16" r="16" fill="#F6F6F6" fill-opacity="0.1"/>
				<path d="M24.7293 11.907C24.4611 11.594 23.9834 11.5529 23.6631 11.8139L21.5637 13.537L20.5983 11.1998C20.564 11.1121 20.5119 11.0384 20.452 10.9735C20.2547 10.5446 19.9122 10.1764 19.44 9.963C19.235 9.87203 19.0233 9.82329 18.8116 9.79947C18.765 9.77564 18.7229 9.74423 18.6697 9.72799L14.9754 8.72187C14.7681 8.66663 14.5597 8.70237 14.3891 8.79984C14.1862 8.86699 14.0122 9.01103 13.9291 9.22005L12.538 12.7149C12.3873 13.0951 12.5801 13.524 12.9703 13.6734C13.3582 13.8207 13.7983 13.6312 13.9501 13.25L15.125 10.2987L16.8076 10.7558C16.7666 10.8207 16.7222 10.8814 16.689 10.9507L14.532 15.5189C14.501 15.586 14.4844 15.6542 14.4622 15.7236L11.8408 20.0177L7.45378 21.4516C6.95721 21.8144 6.85192 22.4978 7.2188 22.983C7.5879 23.4693 8.28951 23.5722 8.78497 23.2137L13.274 21.7029C13.4114 21.6054 13.5112 21.4776 13.5866 21.3401C13.6431 21.2816 13.7074 21.235 13.7506 21.1625L15.3135 18.6022L18.0878 20.9123L15.1195 24.1808C14.7105 24.6314 14.7515 25.3256 15.2148 25.7241C15.677 26.1259 16.3853 26.0837 16.7965 25.631L20.5008 21.5534C20.6161 21.4278 20.6848 21.2827 20.7313 21.1311C20.759 21.0487 20.759 20.9632 20.7657 20.8776C20.7657 20.8343 20.7823 20.7953 20.779 20.7552C20.769 20.4563 20.6449 20.1661 20.3944 19.9592L17.8417 17.8322C18.0257 17.6611 18.182 17.4575 18.2951 17.2181L19.9488 13.7189L20.4786 15.0976C20.5008 15.22 20.5429 15.3402 20.6316 15.4409C20.7114 15.534 20.8134 15.5958 20.922 15.6391C20.9331 15.6445 20.9464 15.6456 20.9597 15.6488C21.0284 15.6727 21.0982 15.6954 21.1703 15.6986C21.2556 15.7062 21.3421 15.6954 21.4296 15.6716C21.4318 15.6705 21.4329 15.6705 21.4329 15.6705C21.4562 15.6651 21.4795 15.6694 21.5028 15.6597C21.6258 15.6142 21.72 15.5373 21.8009 15.4474L24.8136 12.9489C25.1339 12.6857 24.9987 12.22 24.7293 11.907Z" fill="#F6F6F6"/>
				<path d="M20.9191 10.1263C22.0853 10.1263 23.0306 9.20259 23.0306 8.06314C23.0306 6.9237 22.0853 6 20.9191 6C19.753 6 18.8076 6.9237 18.8076 8.06314C18.8076 9.20259 19.753 10.1263 20.9191 10.1263Z" fill="#F6F6F6"/>
			</symbol>

					<symbol id="icon-run" width="24" height="24" viewBox="0 0 24 24" fill="none">
			<circle cx="12" cy="12" r="12" fill="#7E847F"/>
			<path d="M18.8234 8.7254C18.6138 8.47501 18.2403 8.44209 17.9899 8.65089L16.349 10.0294L15.5943 8.15964C15.5675 8.08946 15.5267 8.03054 15.4799 7.97856C15.3257 7.63546 15.058 7.34088 14.6889 7.1702C14.5286 7.09742 14.3631 7.05843 14.1977 7.03937C14.1613 7.02031 14.1283 6.99518 14.0868 6.98219L11.199 6.17729C11.037 6.13311 10.8741 6.1617 10.7407 6.23967C10.5821 6.29339 10.4461 6.40862 10.3811 6.57584L9.29378 9.37175C9.17594 9.67586 9.3267 10.019 9.63168 10.1385C9.93492 10.2564 10.2789 10.1047 10.3976 9.79975L11.316 7.43879L12.6312 7.80441C12.5991 7.8564 12.5645 7.90491 12.5385 7.96036L10.8524 11.6149C10.8282 11.6686 10.8152 11.7232 10.7979 11.7786L8.7488 15.214L5.31955 16.3611C4.9314 16.6513 4.84909 17.198 5.13587 17.5862C5.42439 17.9752 5.97282 18.0575 6.36011 17.7707L9.86907 16.5621C9.97651 16.4841 10.0545 16.3819 10.1134 16.2718C10.1576 16.2251 10.2078 16.1878 10.2416 16.1297L11.4633 14.0816L13.6319 15.9296L11.3116 18.5444C10.9919 18.9049 11.024 19.4602 11.3862 19.7791C11.7474 20.1005 12.3011 20.0667 12.6225 19.7046L15.5181 16.4425C15.6082 16.342 15.6619 16.2259 15.6983 16.1046C15.7199 16.0388 15.7199 15.9703 15.7251 15.9019C15.7251 15.8672 15.7381 15.836 15.7355 15.804C15.7277 15.5648 15.6307 15.3327 15.4349 15.1672L13.4395 13.4655C13.5834 13.3286 13.7055 13.1658 13.7939 12.9743L15.0866 10.1749L15.5007 11.2778C15.5181 11.3758 15.551 11.4719 15.6203 11.5525C15.6827 11.627 15.7624 11.6764 15.8473 11.7111C15.856 11.7154 15.8664 11.7163 15.8768 11.7189C15.9305 11.7379 15.9851 11.7561 16.0414 11.7587C16.1081 11.7648 16.1757 11.7561 16.2441 11.737C16.2459 11.7362 16.2467 11.7362 16.2467 11.7362C16.2649 11.7318 16.2831 11.7353 16.3013 11.7275C16.3975 11.6911 16.4711 11.6296 16.5344 11.5577L18.8893 9.55889C19.1397 9.34835 19.034 8.9758 18.8234 8.7254Z" fill="#F6F6F6"/>
			<path d="M15.8448 7.30102C16.7564 7.30102 17.4954 6.56206 17.4954 5.65051C17.4954 4.73896 16.7564 4 15.8448 4C14.9333 4 14.1943 4.73896 14.1943 5.65051C14.1943 6.56206 14.9333 7.30102 15.8448 7.30102Z" fill="#F6F6F6"/>
			</symbol>

			<symbol id="icon-search" viewBox="0 0 18 18">
				<path d="M8.25 14.25C11.5637 14.25 14.25 11.5637 14.25 8.25C14.25 4.93629 11.5637 2.25 8.25 2.25C4.93629 2.25 2.25 4.93629 2.25 8.25C2.25 11.5637 4.93629 14.25 8.25 14.25Z" stroke="#1B1B1B" stroke-width="1.5" stroke-linecap="round" stroke-linejoin="round"/>
				<path d="M15.75 15.75L12.4875 12.4875" stroke="#1B1B1B" stroke-width="1.5" stroke-linecap="round" stroke-linejoin="round"/>
			</symbol>

			<symbol id="icon-qoute" viewBox="0 0 48 48">
				<path d="M12.3015 26.2027C14.6203 25.284 16.4797 25.5246 17.8797 26.9246C19.2797 28.3246 19.6953 30.5559 19.1265 33.6183C18.689 35.8934 17.7265 37.6433 16.239 38.8683C14.7953 40.0496 13.1109 40.6402 11.1859 40.6402C8.5609 40.6402 6.7453 39.634 5.73903 37.6214C4.73279 35.5652 4.53592 32.809 5.14842 29.3527C5.49841 27.4715 6.06716 25.5684 6.85465 23.6433C7.64218 21.7183 8.69218 19.7496 10.0046 17.7371C11.3172 15.7246 13.0234 13.9746 15.1234 12.4871C17.2234 10.9996 19.5421 10.0371 22.0797 9.59961L21.4234 16.5558C19.2797 16.9934 17.3765 18.109 15.7141 19.9027C14.0515 21.6527 12.914 23.7527 12.3015 26.2027ZM32.0546 26.2027C34.3734 25.284 36.2328 25.5246 37.6328 26.9246C39.0328 28.3246 39.4484 30.5559 38.8797 33.6183C38.4421 35.8934 37.4796 37.6433 35.9922 38.8683C34.5484 40.0496 32.864 40.6402 30.939 40.6402C28.3141 40.6402 26.4984 39.634 25.4922 37.6214C24.4859 35.5652 24.2891 32.809 24.9015 29.3527C25.2516 27.4715 25.8203 25.5684 26.6078 23.6433C27.3953 21.7183 28.4453 19.7496 29.7578 17.7371C31.0703 15.7246 32.7765 13.9746 34.8765 12.4871C36.9765 10.9996 39.2953 10.0371 41.8328 9.59961L41.1765 16.5558C39.0328 16.9934 37.1297 18.109 35.4672 19.9027C33.8047 21.6527 32.6672 23.7527 32.0546 26.2027Z" fill="#F6F6F6"/>
			</symbol>

			<symbol id="icon-star" viewBox="0 0 20 20">
				<path d="M9.04894 0.927052C9.3483 0.00574112 10.6517 0.00573993 10.9511 0.927051L12.4697 5.60081C12.6035 6.01284 12.9875 6.2918 13.4207 6.2918H18.335C19.3037 6.2918 19.7065 7.53141 18.9228 8.10081L14.947 10.9894C14.5966 11.244 14.4499 11.6954 14.5838 12.1074L16.1024 16.7812C16.4017 17.7025 15.3472 18.4686 14.5635 17.8992L10.5878 15.0106C10.2373 14.756 9.7627 14.756 9.41221 15.0106L5.43648 17.8992C4.65276 18.4686 3.59828 17.7025 3.89763 16.7812L5.41623 12.1074C5.55011 11.6954 5.40345 11.244 5.05296 10.9894L1.07722 8.10081C0.293507 7.53141 0.696283 6.2918 1.66501 6.2918H6.57929C7.01252 6.2918 7.39647 6.01284 7.53035 5.60081L9.04894 0.927052Z" fill="#1B1B1B" fill-opacity="0.2"/>
			</symbol>

			<symbol id="icon-star-full" viewBox="0 0 32 32">
				<path fill="#eea10c" style="fill: var(--color3, #eea10c)" d="M13.826 3.262c0.684-2.106 3.663-2.106 4.348 0l1.932 5.945c0.306 0.942 1.184 1.579 2.174 1.579h6.251c2.214 0 3.135 2.833 1.344 4.135l-5.057 3.674c-0.801 0.582-1.136 1.614-0.83 2.556l1.931 5.945c0.684 2.106-1.726 3.857-3.517 2.555l-5.057-3.674c-0.801-0.582-1.886-0.582-2.687 0l-5.057 3.674c-1.791 1.302-4.202-0.45-3.517-2.555l1.932-5.945c0.306-0.942-0.029-1.973-0.83-2.556l-5.057-3.674c-1.791-1.302-0.871-4.135 1.344-4.135h6.251c0.99 0 1.868-0.638 2.174-1.579l1.932-5.945z"></path>
			</symbol>

			<symbol id="icon-trash" viewBox="0 0 16 16">
				<path d="M10.6667 4V3.46667C10.6667 2.71993 10.6667 2.34656 10.5213 2.06135C10.3935 1.81046 10.1895 1.60649 9.93865 1.47866C9.65344 1.33333 9.28007 1.33333 8.53333 1.33333H7.46667C6.71993 1.33333 6.34656 1.33333 6.06135 1.47866C5.81046 1.60649 5.60649 1.81046 5.47866 2.06135C5.33333 2.34656 5.33333 2.71993 5.33333 3.46667V4M6.66667 7.66667V11M9.33333 7.66667V11M2 4H14M12.6667 4V11.4667C12.6667 12.5868 12.6667 13.1468 12.4487 13.5746C12.2569 13.951 11.951 14.2569 11.5746 14.4487C11.1468 14.6667 10.5868 14.6667 9.46667 14.6667H6.53333C5.41323 14.6667 4.85318 14.6667 4.42535 14.4487C4.04903 14.2569 3.74307 13.951 3.55132 13.5746C3.33333 13.1468 3.33333 12.5868 3.33333 11.4667V4" stroke="#1B1B1B" stroke-width="1.3" stroke-linecap="round" stroke-linejoin="round"/>
			</symbol>

			<symbol id="icon-fitness" viewBox="0 0 20 20">
				<path d="M4.6 5.71429H3.4C3.0675 5.71429 2.8 6.00089 2.8 6.35714V9.14286H2.2C2.09 9.14286 2 9.23929 2 9.35714V10.6429C2 10.7607 2.09 10.8571 2.2 10.8571H2.8V13.6429C2.8 13.9991 3.0675 14.2857 3.4 14.2857H4.6C4.9325 14.2857 5.2 13.9991 5.2 13.6429V6.35714C5.2 6.00089 4.9325 5.71429 4.6 5.71429ZM17.8 9.14286H17.2V6.35714C17.2 6.00089 16.9325 5.71429 16.6 5.71429H15.4C15.0675 5.71429 14.8 6.00089 14.8 6.35714V13.6429C14.8 13.9991 15.0675 14.2857 15.4 14.2857H16.6C16.9325 14.2857 17.2 13.9991 17.2 13.6429V10.8571H17.8C17.91 10.8571 18 10.7607 18 10.6429V9.35714C18 9.23929 17.91 9.14286 17.8 9.14286ZM13.4 4H12.2C11.8675 4 11.6 4.28661 11.6 4.64286V9.14286H8.4V4.64286C8.4 4.28661 8.1325 4 7.8 4H6.6C6.2675 4 6 4.28661 6 4.64286V15.3571C6 15.7134 6.2675 16 6.6 16H7.8C8.1325 16 8.4 15.7134 8.4 15.3571V10.8571H11.6V15.3571C11.6 15.7134 11.8675 16 12.2 16H13.4C13.7325 16 14 15.7134 14 15.3571V4.64286C14 4.28661 13.7325 4 13.4 4Z" fill="#F6F6F6"/>
			</symbol>

			<symbol id="icon-right-arrow" viewBox="0 0 16 16">
				<path d="M7.5 14L14 7.5M14 7.5L7.5 1M14 7.5H1" stroke="#1B1B1B" stroke-width="1.3" stroke-linecap="round" stroke-linejoin="round"/>
			</symbol>

			<symbol id="icon-right-sm-arrow" width="13" height="13" viewBox="0 0 13 13" fill="none">
				<path d="M6.5625 12.25L12.25 6.5625M12.25 6.5625L6.5625 0.875M12.25 6.5625H0.875" stroke="#1B1B1B" stroke-width="1.3" stroke-linecap="round" stroke-linejoin="round"/>
			</symbol>

			<symbol id="icon-arrow-top" viewBox="0 0 20 20">
				<path fill-rule="evenodd" clip-rule="evenodd" d="M10.6477 4.99112L10.6477 15.2024L9.56131 15.2024L9.56131 4.99112L4.45568 10.0968L3.6875 9.32858L10.1045 2.91159L16.5215 9.32859L15.7533 10.0968L10.6477 4.99112Z" fill="#F6F6F6" stroke="#F6F6F6" stroke-width="0.3"/>
			</symbol>

			<symbol id="icon-close" viewBox="0 0 12 12">
				   <path d="M11 1L1 11M1 1L11 11" stroke="#1B1B1B" stroke-width="1.5" stroke-linecap="round" stroke-linejoin="round" />
			</symbol>

			<symbol id="icon-burger" viewBox="0 0 28 28">
				<path d="M28 10.3333H4" stroke="#7E847F" stroke-width="2" stroke-linecap="round" stroke-linejoin="round"/>
				<path d="M28 5H4" stroke="#7E847F" stroke-width="2" stroke-linecap="round" stroke-linejoin="round"/>
			</symbol>

			<symbol id="icon-line" viewBox="0 0 342 2">
				<path d="M0 1H342" stroke="#1B1B1B" stroke-opacity="0.2" />
			</symbol>
    </defs>
</svg>
